<?xml version="1.0" encoding="iso-8859-1"?>
<!-- Uploaded to: SVG Repo, www.svgrepo.com, Generator: SVG Repo Mixer Tools -->
<!DOCTYPE svg PUBLIC "-//W3C//DTD SVG 1.1//EN" "http://www.w3.org/Graphics/SVG/1.1/DTD/svg11.dtd">
<svg fill="#000000" version="1.1" id="Capa_1" xmlns="http://www.w3.org/2000/svg" xmlns:xlink="http://www.w3.org/1999/xlink" 
	 width="800px" height="800px" viewBox="0 0 312.417 312.417"
	 xml:space="preserve">
<g>
	<g>
		<path d="M308.442,139.671L145.218,94.811c-0.253-0.056-25.877-5.503-34.75-24.321c-0.749-1.595-2.228-2.719-3.963-3.019
			c-1.738-0.309-3.504,0.264-4.746,1.511c-0.253,0.258-25.919,25.914-45.565,35.269L3.302,126.675
			c-2.097,0.892-3.407,2.998-3.283,5.271s1.661,4.221,3.839,4.875l214.502,64.344c0.506,0.147,1.033,0.222,1.55,0.222
			c0.949,0,1.894-0.243,2.732-0.744l87.106-51.1c1.872-1.097,2.905-3.211,2.621-5.36
			C312.085,142.021,310.541,140.251,308.442,139.671z M219.205,190.133l-197.91-59.36l39.327-16.675
			c16.195-7.704,34.966-24.363,43.772-32.647c12.943,18.473,37.478,23.701,38.314,23.862l150.541,41.391L219.205,190.133z"/>
		<path d="M311.668,163.75c-1.513-2.573-4.83-3.438-7.388-1.92l-85.076,49.913L6.951,148.069c-2.85-0.852-5.864,0.762-6.721,3.623
			c-0.859,2.858,0.765,5.866,3.623,6.724l216.754,65.014l89.137-52.292C312.318,169.63,313.177,166.318,311.668,163.75z"/>
		<path d="M304.281,183.425l-85.076,49.908L6.951,169.672c-2.85-0.849-5.864,0.765-6.721,3.618
			c-0.859,2.857,0.765,5.869,3.623,6.729l216.754,65.011l89.137-52.291c2.579-1.509,3.434-4.82,1.925-7.383
			C310.156,182.776,306.843,181.911,304.281,183.425z"/>
	</g>
</g>
</svg>